<?xml version="1.0" standalone="no"?>
<!DOCTYPE svg PUBLIC "-//W3C//DTD SVG 20010904//EN"
 "http://www.w3.org/TR/2001/REC-SVG-20010904/DTD/svg10.dtd">
<svg version="1.0" xmlns="http://www.w3.org/2000/svg"
 width="1024.000000pt" height="1024.000000pt" viewBox="0 0 1024.000000 1024.000000"
 preserveAspectRatio="xMidYMid meet">

<g transform="translate(0.000000,1024.000000) scale(0.100000,-0.100000)"
fill="#000000" stroke="none">
<path d="M4885 9173 c-406 -27 -898 -142 -1249 -293 -350 -150 -624 -310 -881
-516 -331 -264 -504 -443 -720 -745 -167 -234 -289 -440 -387 -654 -190 -412
-285 -742 -338 -1165 -36 -289 -36 -836 0 -1155 14 -126 106 -576 130 -640 5
-14 7 -25 4 -25 -4 0 -2 -6 3 -12 6 -7 23 -51 38 -98 58 -179 174 -440 268
-602 133 -231 286 -433 528 -698 78 -85 292 -285 349 -324 16 -12 28 -27 25
-34 -2 -6 3 -12 13 -12 10 0 33 -13 52 -28 19 -16 72 -54 118 -86 47 -33 79
-62 76 -68 -4 -7 -2 -8 4 -4 6 4 44 -15 84 -42 40 -27 112 -71 161 -97 48 -26
85 -50 82 -55 -3 -4 1 -7 8 -7 11 1 108 -44 277 -127 85 -43 218 -96 317 -128
38 -11 73 -26 78 -31 7 -7 3 -7 -10 -2 -11 4 -38 9 -60 12 -37 5 -39 4 -20
-10 10 -8 25 -13 32 -10 7 3 13 0 13 -6 0 -6 9 -11 20 -11 11 0 20 -4 20 -10
0 -14 77 -13 86 1 4 8 -4 9 -27 5 -25 -4 -29 -4 -14 3 12 6 14 10 6 10 -8 1
-12 3 -10 6 3 2 21 0 40 -5 64 -20 184 -52 205 -56 12 -2 66 -13 120 -24 55
-12 151 -27 214 -36 63 -8 153 -21 199 -29 46 -8 85 -15 87 -15 2 0 3 -5 2
-12 -2 -6 8 -12 22 -13 66 -4 70 -5 70 -25 0 -11 5 -20 10 -20 6 0 10 9 10 20
0 11 5 20 10 20 6 0 10 -9 10 -20 0 -18 7 -20 75 -20 69 0 76 -2 85 -22 l9
-23 0 23 c1 12 6 22 11 22 6 0 11 -10 11 -22 1 -18 2 -19 6 -5 4 14 8 16 19 6
11 -9 14 -8 14 6 0 16 14 17 185 13 l185 -4 0 23 c0 18 6 23 25 23 18 0 25 -5
25 -20 0 -28 20 -25 21 3 0 12 3 16 6 10 7 -20 37 -15 53 7 8 11 26 20 41 20
15 0 29 4 31 8 5 14 78 23 75 9 -1 -6 8 -13 21 -15 19 -3 22 1 22 27 0 20 -6
31 -17 34 -12 3 -9 5 7 5 27 0 173 31 266 57 32 9 106 29 164 44 101 27 327
108 439 157 29 13 58 21 65 17 6 -3 8 -2 3 2 -4 5 46 34 110 65 213 102 439
245 715 452 125 93 207 165 348 307 189 189 245 256 401 473 129 180 201 305
286 495 224 500 335 1050 358 1773 11 326 -12 567 -86 905 -94 427 -327 954
-611 1378 -536 801 -1430 1379 -2438 1577 -296 58 -702 83 -1005 63z m755
-292 c462 -72 765 -167 1140 -356 554 -281 998 -677 1347 -1200 164 -247 321
-574 413 -860 38 -121 103 -388 130 -535 62 -344 44 -747 -51 -1153 -105 -450
-256 -797 -507 -1167 -143 -210 -244 -330 -418 -501 -583 -572 -1379 -932
-2224 -1009 -444 -40 -1054 32 -1467 174 -422 144 -844 382 -1173 662 -89 76
-342 342 -454 478 -150 181 -314 429 -409 621 -93 185 -198 472 -257 706 -38
149 -79 422 -90 602 -26 415 44 864 201 1292 66 181 236 513 347 680 199 299
486 620 727 814 538 432 1163 689 1850 761 61 6 119 13 130 15 11 2 157 2 325
0 249 -2 330 -7 440 -24z m-4196 -4347 c9 -8 16 -11 16 -5 0 7 27 11 70 11
l69 0 11 -42 c26 -98 96 -294 155 -433 26 -60 55 -135 65 -165 36 -111 131
-283 231 -420 30 -41 80 -113 111 -160 112 -169 385 -482 578 -663 76 -72 301
-239 426 -317 153 -96 361 -205 544 -286 125 -55 410 -148 546 -179 65 -15
155 -35 199 -45 79 -19 227 -38 475 -60 221 -21 723 7 935 51 89 19 142 33
320 85 52 16 163 59 323 125 51 22 95 39 98 39 13 0 262 114 286 131 14 11 29
19 31 19 11 0 192 112 305 189 62 42 120 81 130 86 83 47 251 203 437 406 96
105 110 124 78 112 -10 -4 11 24 46 63 89 96 331 426 331 450 0 4 20 34 43 68
73 102 208 362 257 494 7 17 16 32 21 32 11 0 12 -17 1 -22 -13 -5 -24 -58
-13 -58 6 0 15 8 20 18 10 16 10 16 11 0 0 -12 8 -18 25 -18 14 0 25 5 25 10
0 6 15 10 34 10 25 0 36 5 39 18 2 9 2 -11 0 -46 -3 -73 -30 -147 -115 -317
-84 -166 -225 -405 -240 -405 -5 0 -8 -6 -8 -14 0 -7 -7 -20 -16 -27 -9 -8
-36 -43 -60 -79 -24 -36 -83 -112 -131 -170 -301 -360 -687 -669 -1148 -918
-244 -132 -656 -290 -906 -347 -59 -14 -113 -27 -120 -30 -19 -6 -178 -34
-264 -45 -38 -5 -119 -16 -180 -24 -74 -10 -198 -15 -377 -16 -321 0 -450 13
-833 86 -171 33 -524 147 -730 236 -110 47 -377 190 -500 267 -118 74 -338
235 -447 327 -95 81 -335 316 -389 380 -297 356 -453 600 -622 969 -85 187
-121 283 -165 446 -60 217 -59 215 -28 183z m7147 -385 c-5 -13 -10 -19 -10
-12 -1 15 10 45 15 40 3 -2 0 -15 -5 -28z m159 -99 c-6 -11 -12 -20 -14 -20
-2 0 -2 9 1 20 3 11 9 20 15 20 5 0 4 -9 -2 -20z m-880 -1053 c0 -2 -10 -12
-22 -23 l-23 -19 19 23 c18 21 26 27 26 19z m-80 -80 c0 -2 -10 -12 -22 -23
l-23 -19 19 23 c18 21 26 27 26 19z m-1957 -1524 c-7 -2 -19 -2 -25 0 -7 3 -2
5 12 5 14 0 19 -2 13 -5z m-70 -10 c-7 -2 -21 -2 -30 0 -10 3 -4 5 12 5 17 0
24 -2 18 -5z m-837 -40 c-7 -7 -77 -5 -85 3 -2 2 17 4 44 4 27 0 45 -3 41 -7z
m523 3 c-11 -9 -69 -14 -69 -6 0 6 17 10 37 10 20 0 34 -2 32 -4z m-126 -13
c-29 -2 -78 -2 -110 0 -32 2 -8 3 52 3 61 0 87 -1 58 -3z"/>
<path d="M4850 8659 c-278 -32 -589 -93 -762 -150 -561 -186 -1072 -526 -1422
-944 -273 -327 -419 -553 -552 -852 -66 -149 -74 -171 -119 -320 -86 -281
-117 -453 -135 -769 -20 -323 11 -591 106 -923 59 -208 102 -323 195 -524 64
-138 200 -363 283 -467 28 -36 60 -78 70 -95 70 -111 394 -453 475 -501 17
-10 31 -22 31 -26 0 -5 12 0 28 11 23 16 50 20 182 24 160 6 231 19 293 57 72
44 297 67 289 30 -2 -8 -6 -40 -9 -70 -9 -110 6 -100 -156 -100 -78 0 -233 -3
-344 -7 -167 -5 -201 -9 -192 -19 13 -16 188 -141 243 -174 37 -22 47 -23 191
-21 84 1 177 6 207 10 l54 7 26 -68 26 -68 -52 -1 c-28 -1 -78 -4 -111 -8
l-60 -7 95 -46 c195 -93 392 -159 621 -207 428 -89 818 -127 1054 -102 144 16
184 22 183 30 -2 18 3 32 10 27 4 -3 9 12 11 32 1 20 3 44 4 52 1 13 27 15
167 15 183 -1 238 -13 162 -36 -45 -13 -77 -39 -49 -39 9 0 51 11 94 24 43 14
126 37 186 51 59 14 146 41 195 59 99 38 273 115 285 126 5 4 -70 11 -166 15
l-175 7 42 42 c23 22 51 53 62 69 19 27 20 27 74 17 35 -7 113 -8 212 -4 113
5 162 4 172 -5 10 -9 26 -5 71 19 245 129 771 610 865 790 13 24 12 24 -13 -2
-26 -28 -28 -28 -149 -28 -68 0 -140 3 -161 7 l-39 6 7 56 c13 109 -12 98 221
99 112 0 204 -2 204 -4 0 -3 -7 -21 -15 -41 -39 -93 71 61 191 267 194 334
320 709 390 1165 19 127 22 491 5 615 -42 294 -126 626 -216 855 -170 433
-541 959 -870 1235 -113 94 -303 237 -420 315 -126 84 -460 249 -627 309 -232
84 -587 165 -808 185 -133 13 -550 12 -660 0z m429 -296 c70 -24 169 -91 211
-144 60 -77 83 -147 84 -259 1 -135 -12 -169 -97 -257 -68 -70 -166 -133 -207
-133 -16 0 -17 -42 -16 -600 l1 -600 21 0 c71 0 259 -80 338 -144 32 -26 59
-46 60 -44 63 87 312 344 622 645 189 183 191 185 178 212 -17 34 -34 140 -34
211 0 193 125 369 309 432 93 32 279 32 362 0 324 -128 411 -544 165 -787 -71
-70 -137 -108 -227 -131 -115 -30 -292 0 -389 65 l-43 29 -251 -246 c-138
-136 -323 -318 -411 -404 l-160 -158 19 -32 c57 -99 88 -171 103 -233 l16 -70
818 0 818 1 33 49 c23 35 49 58 88 78 49 26 63 28 122 24 48 -3 79 -12 112
-31 216 -126 162 -436 -85 -488 -78 -16 -158 9 -216 67 -24 23 -43 52 -43 64
l0 21 -830 0 -830 0 0 -32 c0 -58 -42 -187 -82 -253 l-39 -66 78 -77 c44 -42
144 -135 223 -207 141 -128 439 -424 480 -477 26 -34 30 -34 79 -3 94 59 253
87 370 65 93 -17 175 -62 252 -139 137 -138 170 -312 97 -510 -29 -76 -56
-118 -114 -171 -99 -92 -195 -130 -327 -130 -225 0 -414 138 -472 344 -31 112
-27 266 9 338 13 26 12 29 -63 100 -42 40 -223 218 -404 396 l-327 323 -55
-45 c-86 -69 -263 -146 -339 -146 l-35 0 6 -627 5 -628 36 -8 c157 -34 304
-208 332 -394 10 -63 9 -83 -8 -152 -11 -43 -32 -101 -46 -129 -55 -108 -192
-207 -324 -233 -82 -16 -202 -7 -273 21 -77 30 -185 114 -230 179 -50 74 -84
208 -74 295 15 130 62 230 147 313 51 50 148 109 200 123 l37 10 1 614 0 613
-47 7 c-79 11 -182 52 -256 103 -38 26 -81 56 -96 65 l-26 17 -401 -392 -400
-392 13 -38 c7 -21 18 -76 25 -122 22 -151 -27 -300 -132 -405 -37 -37 -85
-71 -134 -95 -66 -33 -86 -38 -168 -43 -116 -6 -197 13 -290 68 -172 103 -259
304 -223 521 25 155 185 313 355 353 150 36 278 11 402 -76 14 -10 35 8 150
126 73 76 162 166 198 200 36 33 124 118 195 187 123 119 255 229 276 229 17
0 9 25 -36 115 -32 62 -51 117 -62 178 l-17 87 -817 0 -817 0 -12 -29 c-15
-37 -54 -73 -110 -103 -131 -68 -311 19 -354 171 -21 75 -20 116 5 171 78 173
311 218 430 83 17 -20 36 -49 41 -65 9 -25 14 -28 37 -23 14 3 378 6 808 7
l782 2 16 64 c16 64 56 152 102 225 13 21 23 42 21 46 -2 4 -111 109 -243 232
-132 123 -322 304 -422 402 l-182 179 -35 -27 c-87 -66 -255 -86 -376 -45
-130 44 -210 108 -272 220 -86 152 -85 330 3 485 91 163 318 251 514 200 160
-42 298 -168 349 -319 30 -87 19 -263 -21 -340 l-15 -29 129 -126 c71 -69 260
-253 419 -407 l289 -281 39 33 c77 67 223 135 319 149 l47 7 0 593 0 593 -43
10 c-55 14 -152 77 -196 127 -81 92 -108 216 -77 348 23 99 60 168 116 221
112 104 273 139 419 89z m-567 -96 c-21 -22 -42 -76 -57 -141 l-6 -29 -67 7
c-37 3 -98 6 -135 6 -63 0 -70 2 -97 31 -45 50 -67 96 -54 117 10 15 34 18
180 22 93 3 189 7 213 8 l44 2 -21 -23z m1195 -6 l82 -6 -25 -50 c-13 -27 -24
-58 -24 -67 0 -19 -27 -24 -186 -33 l-102 -5 -6 45 c-4 24 -18 65 -32 90 l-24
46 117 -7 c65 -3 155 -9 200 -13z m-1708 -77 c99 -29 174 -135 174 -244 0 -64
-24 -119 -77 -175 l-35 -37 31 -62 c17 -33 60 -105 97 -159 91 -136 171 -261
256 -402 40 -66 116 -189 168 -273 101 -162 130 -228 125 -287 -3 -31 -9 -39
-54 -65 l-52 -29 -68 107 c-37 59 -107 168 -155 242 -208 323 -494 800 -519
864 -5 14 -23 27 -47 34 -54 16 -109 65 -141 126 -21 41 -26 64 -26 121 0 122
53 197 167 236 64 23 89 23 156 3z m2078 1 c63 -26 100 -62 132 -126 39 -78
41 -147 9 -217 -30 -63 -103 -134 -155 -151 -35 -12 -43 -19 -43 -38 0 -31 -7
-44 -95 -178 -64 -97 -205 -318 -289 -453 -76 -121 -327 -501 -362 -547 -14
-19 -15 -19 -49 -1 l-35 19 0 75 c0 67 4 81 38 146 100 186 360 594 525 826
29 41 68 100 85 131 l32 56 -44 40 c-108 98 -119 233 -29 351 54 71 191 104
280 67z m448 -218 c11 -5 38 -25 60 -44 21 -18 65 -43 97 -55 32 -11 58 -21
58 -22 0 0 -26 -2 -58 -2 -31 -1 -109 -15 -173 -33 -63 -17 -144 -34 -179 -38
l-63 -6 6 33 c4 18 7 69 7 113 l0 80 113 -8 c61 -4 121 -12 132 -18z m-2918
-82 l3 -95 -73 6 c-39 3 -112 12 -162 20 -49 8 -112 15 -140 17 l-49 2 69 55
c38 30 76 60 85 65 13 9 102 18 225 23 l40 2 2 -95z m717 -41 l93 -7 6 -81 c4
-44 9 -91 13 -103 6 -23 6 -23 -108 -23 l-115 0 -6 83 c-11 130 -9 150 8 143
9 -3 58 -9 109 -12z m1355 -21 c0 -21 -6 -69 -12 -108 l-13 -70 -107 0 c-93 0
-107 2 -107 17 0 23 20 170 25 186 3 8 34 12 110 12 l105 0 -1 -37z m1695
-590 c-4 -16 -12 -31 -18 -35 -7 -5 -3 -8 9 -8 27 0 106 -30 129 -49 10 -9 25
-29 33 -44 7 -15 39 -57 69 -92 l55 -65 -181 0 c-137 0 -180 3 -180 13 0 6 9
65 20 130 11 65 20 144 20 175 l0 57 25 -27 c20 -22 24 -34 19 -55z m-1242
-75 l4 -98 -128 0 c-70 0 -128 2 -128 5 0 3 28 47 61 99 l62 94 61 8 c40 6 62
6 63 -1 1 -5 3 -54 5 -107z m-1518 96 c39 -9 77 -18 84 -20 8 -2 12 -27 12
-78 l0 -75 -105 3 c-58 2 -109 7 -113 10 -9 9 -19 144 -12 156 4 7 29 15 54
19 4 0 40 -6 80 -15z m794 -76 l-3 -83 -108 -3 -109 -3 7 78 c4 43 9 81 12 86
2 4 49 7 104 7 l100 0 -3 -82z m-1536 60 c36 -1 37 -3 106 -124 39 -68 74
-133 77 -145 7 -20 5 -21 -21 -15 -16 4 -31 11 -34 16 -12 19 -65 30 -140 30
-98 0 -106 8 -90 102 5 35 10 82 10 106 0 42 1 43 28 38 15 -4 44 -7 64 -8z
m-1270 -53 c26 -10 35 -60 28 -148 -4 -42 -9 -79 -11 -81 -2 -2 -89 -7 -192
-10 l-189 -8 12 21 c25 49 108 159 148 200 l44 44 72 -6 c39 -3 79 -8 88 -12z
m5013 -430 c155 -44 243 -216 186 -365 -48 -127 -120 -197 -227 -221 -53 -12
-80 -9 -170 17 -18 5 -35 -10 -94 -78 -44 -50 -86 -88 -105 -95 -32 -12 -328
-15 -1104 -14 l-303 1 57 62 c31 33 61 71 67 84 10 20 20 23 127 31 64 4 328
7 586 5 l470 -3 69 76 69 77 -24 51 c-49 104 -21 227 69 309 93 84 188 102
327 63z m-5049 -12 c94 -50 160 -151 171 -266 5 -55 2 -72 -17 -111 -12 -25
-20 -49 -18 -53 1 -5 32 -35 68 -69 l65 -60 542 -3 c298 -1 553 -5 566 -9 14
-4 43 -30 65 -58 22 -28 58 -62 79 -75 l38 -24 -40 -7 c-22 -4 -332 -7 -689
-7 l-648 -1 -94 96 -95 96 -61 -17 c-39 -11 -76 -15 -102 -11 -99 15 -203 93
-247 185 -33 68 -32 179 0 246 42 85 103 141 181 166 48 16 191 4 236 -18z
m3007 -197 c-3 -25 -1 -46 5 -50 17 -10 -6 -62 -33 -74 -30 -14 -95 -26 -95
-18 0 7 120 184 126 186 1 0 -1 -20 -3 -44z m1536 -24 c0 -33 5 -78 11 -101 6
-24 10 -45 7 -47 -6 -6 -867 -7 -873 -1 -3 3 17 26 44 51 27 26 62 64 77 86
32 46 41 49 49 16 9 -36 80 -83 144 -97 30 -6 103 -9 162 -7 101 3 112 5 181
41 41 21 99 55 129 76 30 22 58 39 62 40 4 1 7 -25 7 -57z m-4158 -33 c83 -50
116 -59 206 -59 93 0 215 38 260 80 l32 30 79 -80 c44 -44 74 -80 68 -81 -41
-4 -769 -10 -772 -6 -1 1 1 39 4 85 l5 84 26 -7 c14 -3 56 -24 92 -46z m1487
-88 c3 -8 -1 -12 -9 -9 -7 2 -15 10 -17 17 -3 8 1 12 9 9 7 -2 15 -10 17 -17z
m3517 -212 c8 -14 30 -82 50 -150 20 -68 38 -128 39 -134 2 -6 -54 -10 -155
-10 -88 0 -159 1 -159 3 0 1 22 32 50 68 53 69 54 72 67 174 6 53 11 64 25 62
9 -1 19 2 22 7 12 18 48 7 61 -20z m-5950 -64 c17 -4 37 -9 46 -11 9 -3 29
-34 44 -71 16 -36 44 -86 62 -110 18 -24 33 -44 33 -46 0 -1 -62 -2 -137 -2
-76 0 -164 -4 -196 -8 -55 -8 -58 -7 -49 10 5 10 15 47 22 83 11 59 38 127 62
157 9 12 56 11 113 -2z m-136 -705 c29 -5 73 -10 97 -10 l44 0 0 -70 0 -70
-115 0 -115 0 0 86 c0 77 2 85 18 80 9 -3 41 -10 71 -16z m2238 -200 c-3 -11
-1 -18 4 -14 14 8 11 -11 -11 -66 -11 -28 -20 -59 -20 -69 0 -28 -53 -31 -671
-31 l-567 0 -27 -37 c-16 -21 -47 -58 -71 -83 l-43 -45 15 -55 c28 -103 -1
-236 -71 -318 -100 -118 -322 -121 -438 -6 -91 92 -120 253 -65 360 55 105 96
135 253 182 59 18 78 30 125 77 51 53 79 70 155 98 20 7 229 13 620 17 325 3
641 7 704 8 109 2 113 1 108 -18z m2779 11 c399 -6 397 -6 407 -60 4 -19 22
-41 54 -64 26 -20 59 -45 73 -55 16 -13 55 -23 113 -30 48 -6 107 -20 130 -30
116 -52 193 -200 167 -318 -46 -206 -228 -316 -419 -254 -55 17 -79 32 -110
65 -63 68 -84 118 -89 212 -4 71 -2 87 17 118 11 20 21 42 21 49 0 7 -24 35
-52 62 -29 27 -63 63 -75 79 l-21 30 -611 5 c-595 5 -611 5 -625 25 -9 11 -16
23 -16 26 0 3 -13 23 -30 44 -40 50 -41 92 -2 98 42 6 658 6 1068 -2z m1082
-111 c45 -7 97 -10 114 -6 l31 6 -5 -85 c-2 -47 -7 -88 -11 -91 -3 -4 -63 -1
-132 5 -92 9 -135 17 -158 32 -18 10 -40 19 -49 19 -30 0 -21 19 40 85 42 46
61 61 72 55 9 -5 53 -14 98 -20z m-5915 -34 c31 -13 107 -82 107 -97 0 -8 -94
-17 -237 -22 l-93 -3 0 32 c0 17 -3 45 -6 62 l-6 31 58 4 c125 7 146 7 177 -7z
m1581 -316 l241 -1 -28 -22 c-15 -12 -51 -42 -80 -65 -53 -44 -76 -57 -125
-68 -15 -3 -209 -8 -431 -11 l-404 -6 6 33 c4 18 7 60 7 93 l0 60 287 -6 c157
-4 395 -7 527 -7z m3496 -20 c-2 -8 -4 -50 -3 -93 1 -70 -1 -78 -15 -72 -10 4
-203 9 -431 11 l-414 4 -36 31 c-20 16 -66 53 -103 81 -38 28 -68 51 -68 52 0
0 242 1 538 1 473 0 536 -2 532 -15z m-5078 -91 l-3 -91 -31 6 c-17 3 -59 6
-94 6 l-63 0 -5 33 c-3 17 -7 53 -9 79 l-4 47 41 4 c22 2 70 4 106 5 l65 2 -3
-91z m5988 54 c0 -16 2 -16 11 -3 8 12 9 11 5 -5 -3 -11 -6 -44 -7 -72 l-3
-53 -82 0 c-92 0 -91 -1 -100 83 -3 35 -1 53 8 59 7 4 48 8 91 8 67 0 77 -2
77 -17z m-2613 -106 c39 -62 115 -186 169 -277 53 -91 128 -214 164 -275 168
-276 298 -503 305 -533 5 -24 16 -37 44 -52 51 -26 98 -82 108 -127 32 -153
-24 -263 -158 -314 -90 -35 -171 -19 -237 44 -116 111 -103 318 23 382 22 11
42 21 44 22 6 3 -46 90 -129 213 -147 220 -560 922 -560 952 0 3 17 8 38 11
20 4 53 20 72 36 19 17 37 30 40 30 3 0 37 -51 77 -112z m-729 43 c25 0 37
-16 24 -33 -5 -7 -30 -52 -56 -100 -26 -48 -113 -195 -194 -325 -82 -130 -177
-288 -213 -350 -35 -62 -97 -165 -136 -229 -40 -65 -73 -122 -73 -128 0 -5 21
-30 47 -55 106 -103 111 -224 12 -343 -58 -71 -163 -102 -254 -77 -137 38
-226 256 -151 370 29 43 96 97 133 106 14 4 23 14 23 25 0 11 6 34 13 52 l14
32 -91 3 c-50 2 -92 4 -92 5 -1 1 8 39 19 85 l21 84 123 -4 123 -3 32 57 c18
32 71 120 118 197 47 76 132 217 189 314 57 96 127 206 156 244 29 38 60 84
69 101 l16 32 54 -30 c29 -17 62 -30 74 -30z m-394 -153 c26 -19 24 -121 -2
-157 -28 -38 -57 -47 -169 -55 l-101 -7 36 43 c84 98 179 189 198 189 11 0 28
-6 38 -13z m1432 -103 c32 -37 61 -71 62 -75 5 -12 -60 -11 -91 0 -28 11 -57
66 -57 110 0 47 20 39 86 -35z m-1039 -56 c-2 -13 -4 -3 -4 22 0 25 2 35 4 23
2 -13 2 -33 0 -45z m27 -265 c3 -42 6 -88 6 -104 l0 -27 -114 -1 -115 0 70
104 c68 103 70 105 108 105 l38 0 7 -77z m524 50 c12 -10 46 -53 76 -95 l55
-78 -101 0 -101 0 7 86 c3 48 9 90 12 95 8 14 30 11 52 -8z m-2622 -15 c-3
-13 -6 -53 -6 -90 l0 -68 -220 0 c-245 0 -234 -3 -228 69 l3 41 28 -15 c49
-25 143 -38 185 -24 52 17 122 54 157 83 17 14 43 25 59 26 25 0 28 -3 22 -22z
m3412 -15 c34 -26 92 -107 92 -128 0 -13 -185 -29 -223 -20 -19 5 -26 20 -41
78 -10 40 -21 77 -23 84 -6 15 45 22 112 16 33 -3 61 -13 83 -30z m1765 32
c12 -5 11 -13 -6 -46 -11 -22 -22 -60 -24 -84 -7 -53 6 -51 -260 -47 l-203 4
0 76 0 76 33 -30 c38 -36 77 -54 116 -54 38 0 133 34 196 69 66 38 113 49 148
36z m-3723 -15 c0 -19 -53 -146 -63 -152 -14 -9 -247 -11 -247 -2 0 21 56 117
80 137 26 23 38 25 129 25 56 0 101 -4 101 -8z m-1447 -422 c4 -45 6 -83 4
-84 -1 -1 -69 -3 -152 -5 l-150 -4 -27 50 c-15 28 -28 60 -28 72 0 12 -6 25
-12 30 -7 4 59 10 147 13 88 3 172 7 186 8 26 2 26 1 32 -80z m2089 5 c2 -43
1 -81 -2 -85 -3 -3 -94 -9 -202 -13 l-196 -7 41 85 c49 99 35 93 224 96 l131
1 4 -77z m782 -6 c31 -46 56 -86 56 -90 0 -4 -83 -7 -185 -7 l-185 0 0 84 c0
99 -12 92 157 95 l101 1 56 -83z m662 26 c0 -32 3 -70 7 -84 6 -25 5 -27 -42
-33 -27 -3 -56 -3 -65 0 -21 8 -90 144 -79 155 4 4 35 10 68 12 33 2 71 4 85
5 24 2 25 0 26 -55z m-3448 -331 c5 -35 -23 -60 -73 -64 -39 -3 -47 1 -75 30
-18 18 -29 36 -25 40 6 7 124 20 155 18 8 -1 16 -12 18 -24z m4676 8 c7 -7 5
-10 -6 -10 -9 0 -20 -9 -23 -20 -5 -16 -10 -18 -26 -10 -13 7 -19 7 -19 0 0
-5 -9 -10 -20 -10 -11 0 -20 -4 -20 -10 0 -16 -72 -24 -122 -13 -33 6 -49 6
-51 -1 -3 -6 -8 -8 -12 -4 -4 4 6 19 21 34 16 15 22 24 14 20 -8 -5 -1 4 15
18 29 26 32 27 134 22 57 -3 109 -10 115 -16z m-2939 -37 c-34 -83 -49 -140
-54 -213 l-6 -85 -100 -6 c-55 -3 -102 -5 -104 -3 -2 2 1 50 7 106 8 70 8 117
1 147 -5 24 -6 48 -2 52 5 5 53 10 108 12 55 1 113 4 129 5 23 2 27 -1 21 -15z
m1255 -1 c0 -4 -5 -13 -12 -20 -6 -6 -15 -58 -19 -114 -11 -156 -10 -155 -72
-153 -70 3 -117 14 -117 28 -1 26 -30 230 -35 248 -6 18 0 19 124 19 72 0 131
-4 131 -8z m795 -162 c28 -6 78 -21 113 -32 53 -17 84 -19 200 -16 120 3 139
1 155 -14 19 -20 47 -24 47 -8 0 6 7 10 15 10 8 0 15 -4 15 -9 0 -5 9 -11 20
-14 13 -3 20 0 20 9 0 8 4 14 10 14 15 0 -9 -44 -32 -59 -16 -10 -19 -10 -13
1 5 7 -2 3 -14 -9 -18 -19 -33 -23 -79 -23 -31 0 -165 -5 -297 -11 -132 -6
-277 -8 -322 -4 l-83 7 0 97 0 98 98 -13 c53 -6 120 -17 147 -24z m-2100 -417
l0 -83 -200 0 c-168 1 -196 3 -177 14 32 17 130 115 137 135 4 15 22 17 123
17 l117 0 0 -83z m1291 5 c20 -62 29 -79 47 -83 12 -2 31 -6 42 -8 11 -3 -62
-5 -162 -6 l-181 -1 14 29 c8 15 17 55 20 87 l6 59 95 0 95 0 24 -77z m-1275
-298 c47 0 63 -5 86 -25 27 -24 27 -24 6 -25 -13 0 -23 5 -23 11 0 5 -10 3
-22 -5 -44 -31 -185 -16 -262 27 -20 11 -20 11 9 18 17 5 57 6 89 3 32 -2 85
-4 117 -4z"/>
<path d="M5005 6157 c-107 -36 -241 -128 -308 -211 -72 -91 -127 -240 -127
-349 0 -79 28 -197 67 -277 79 -164 262 -297 441 -320 254 -33 478 85 595 315
82 163 85 383 6 544 -56 114 -197 236 -324 283 -75 27 -286 36 -350 15z m251
-168 c80 -15 143 -51 209 -120 72 -75 107 -151 113 -244 12 -185 -86 -360
-241 -431 -107 -49 -253 -45 -362 9 -134 67 -245 237 -245 375 0 110 56 238
132 307 66 59 107 80 194 99 86 18 124 19 200 5z"/>
<path d="M3570 4226 c0 -2 8 -10 18 -17 15 -13 16 -12 3 4 -13 16 -21 21 -21
13z"/>
<path d="M6743 3943 c-4 -9 -1 -19 5 -21 7 -2 12 -12 12 -23 0 -12 7 -19 20
-19 11 0 20 -4 20 -10 0 -5 18 -10 40 -10 22 0 40 5 40 10 0 6 18 10 40 10 33
0 40 3 40 20 0 13 7 20 20 20 13 0 20 7 20 20 0 19 -7 20 -125 20 -109 0 -127
-2 -132 -17z"/>
<path d="M3250 3741 c14 -11 30 -21 35 -21 11 0 -7 14 -40 31 -13 7 -12 3 5
-10z"/>
<path d="M8071 4694 c0 -11 3 -14 6 -6 3 7 2 16 -1 19 -3 4 -6 -2 -5 -13z"/>
<path d="M8082 4620 c0 -14 2 -19 5 -12 2 6 2 18 0 25 -3 6 -5 1 -5 -13z"/>
<path d="M4790 4649 c0 -14 59 -69 74 -69 13 0 36 20 36 32 0 10 -46 33 -82
42 -18 4 -28 2 -28 -5z"/>
<path d="M2695 2070 c3 -5 8 -10 11 -10 2 0 4 5 4 10 0 6 -5 10 -11 10 -5 0
-7 -4 -4 -10z"/>
<path d="M3557 1649 c7 -7 15 -10 18 -7 3 3 -2 9 -12 12 -14 6 -15 5 -6 -5z"/>
<path d="M3625 1610 c-15 -6 -16 -9 -4 -9 27 -2 52 -38 46 -68 -5 -26 -4 -26
9 -8 8 11 12 26 8 35 -3 8 -7 22 -7 30 0 14 -15 30 -27 29 -3 0 -14 -4 -25 -9z"/>
<path d="M3565 1590 c-8 -13 5 -13 25 0 13 8 13 10 -2 10 -9 0 -20 -4 -23 -10z"/>
<path d="M3600 1561 c6 -12 16 -21 23 -21 7 0 6 4 -3 10 -11 7 -11 10 -2 10 7
0 17 -10 22 -22 9 -21 9 -20 7 7 -2 25 -7 31 -30 33 -26 3 -28 2 -17 -17z"/>
<path d="M3715 1570 c3 -5 8 -10 11 -10 2 0 4 5 4 10 0 6 -5 10 -11 10 -5 0
-7 -4 -4 -10z"/>
<path d="M4500 1376 c0 -2 7 -6 15 -10 8 -3 15 -1 15 4 0 6 -7 10 -15 10 -8 0
-15 -2 -15 -4z"/>
<path d="M4768 1343 c6 -2 18 -2 25 0 6 3 1 5 -13 5 -14 0 -19 -2 -12 -5z"/>
<path d="M4760 1321 c0 -5 9 -7 20 -4 11 3 20 7 20 9 0 2 -9 4 -20 4 -11 0
-20 -4 -20 -9z"/>
<path d="M5700 1310 c0 -5 9 -10 20 -10 11 0 20 5 20 10 0 6 -9 10 -20 10 -11
0 -20 -4 -20 -10z"/>
<path d="M5592 1260 c0 -14 2 -19 5 -12 2 6 2 18 0 25 -3 6 -5 1 -5 -13z"/>
<path d="M5470 1264 c0 -3 6 -12 14 -19 14 -14 36 -2 36 20 0 5 -5 3 -11 -5
-8 -11 -12 -12 -16 -2 -5 12 -23 17 -23 6z"/>
<path d="M5641 1254 c0 -11 3 -14 6 -6 3 7 2 16 -1 19 -3 4 -6 -2 -5 -13z"/>
</g>
</svg>
